<mxfile host="drawio-plugin" modified="2021-07-11T11:57:42.759Z" agent="5.0 (Macintosh; Intel Mac OS X 11_2_2) AppleWebKit/537.36 (KHTML, like Gecko) Chrome/87.0.4280.141 Safari/537.36" etag="8pnbOV5WLHX6i1byj1OY" version="14.7.4" type="embed"><diagram id="23iRSUPoRavnBvh4doch" name="Page-1"><mxGraphModel dx="786" dy="429" grid="1" gridSize="10" guides="1" tooltips="1" connect="1" arrows="1" fold="1" page="1" pageScale="1" pageWidth="827" pageHeight="1169" math="0" shadow="0"><root><mxCell id="0"/><mxCell id="1" parent="0"/><mxCell id="2" value="Singleton" style="swimlane;fontStyle=1;align=center;verticalAlign=top;childLayout=stackLayout;horizontal=1;startSize=26;horizontalStack=0;resizeParent=1;resizeParentMax=0;resizeLast=0;collapsible=1;marginBottom=0;" parent="1" vertex="1"><mxGeometry x="310" y="220" width="160" height="112" as="geometry"/></mxCell><mxCell id="3" value="- singleton" style="text;strokeColor=none;fillColor=none;align=left;verticalAlign=top;spacingLeft=4;spacingRight=4;overflow=hidden;rotatable=0;points=[[0,0.5],[1,0.5]];portConstraint=eastwest;" parent="2" vertex="1"><mxGeometry y="26" width="160" height="26" as="geometry"/></mxCell><mxCell id="4" value="" style="line;strokeWidth=1;fillColor=none;align=left;verticalAlign=middle;spacingTop=-1;spacingLeft=3;spacingRight=3;rotatable=0;labelPosition=right;points=[];portConstraint=eastwest;" parent="2" vertex="1"><mxGeometry y="52" width="160" height="8" as="geometry"/></mxCell><mxCell id="5" value="- Singletoon" style="text;strokeColor=none;fillColor=none;align=left;verticalAlign=top;spacingLeft=4;spacingRight=4;overflow=hidden;rotatable=0;points=[[0,0.5],[1,0.5]];portConstraint=eastwest;" parent="2" vertex="1"><mxGeometry y="60" width="160" height="26" as="geometry"/></mxCell><mxCell id="6" value="+ getInstance" style="text;strokeColor=none;fillColor=none;align=left;verticalAlign=top;spacingLeft=4;spacingRight=4;overflow=hidden;rotatable=0;points=[[0,0.5],[1,0.5]];portConstraint=eastwest;" parent="2" vertex="1"><mxGeometry y="86" width="160" height="26" as="geometry"/></mxCell><mxCell id="7" value="&lt;h1&gt;单例模式&lt;/h1&gt;&lt;p&gt;首推枚举和双检锁，其中前者在Effective Java中被推荐（防止反序列化时生成新的实例，线程安全）&lt;font style=&quot;font-size: 12px&quot;&gt;。&lt;span style=&quot;background-color: rgb(255 , 255 , 255) ; color: rgb(51 , 51 , 51)&quot;&gt;开发工具类库中的很多工具类都应用了单例模式，比例线程池、缓存、日志对象等，它们都只需要创建一个对象，如果创建多份实例，可能会带来不可预知的问题，比如资源的浪费、结果处理不一致等问题。&lt;/span&gt;&lt;/font&gt;&lt;/p&gt;&lt;div&gt;&lt;span style=&quot;background-color: rgb(255 , 255 , 255) ; color: rgb(51 , 51 , 51) ; font-family: , , &amp;#34;segoe ui&amp;#34; , &amp;#34;roboto&amp;#34; , &amp;#34;ubuntu&amp;#34; , &amp;#34;cantarell&amp;#34; , &amp;#34;noto sans&amp;#34; , sans-serif , , &amp;#34;helvetica neue&amp;#34; , &amp;#34;pingfang sc&amp;#34; , &amp;#34;hiragino sans gb&amp;#34; , &amp;#34;microsoft yahei&amp;#34; , &amp;#34;arial&amp;#34; ; font-size: 15px&quot;&gt;&lt;br&gt;&lt;/span&gt;&lt;/div&gt;" style="text;html=1;strokeColor=none;fillColor=none;spacing=5;spacingTop=-20;whiteSpace=wrap;overflow=hidden;rounded=0;" parent="1" vertex="1"><mxGeometry x="190" y="40" width="380" height="130" as="geometry"/></mxCell></root></mxGraphModel></diagram></mxfile>